<?xml version="1.0" standalone="no"?><!DOCTYPE svg PUBLIC "-//W3C//DTD SVG 1.1//EN" "http://www.w3.org/Graphics/SVG/1.1/DTD/svg11.dtd"><svg t="1700029409052" class="icon" viewBox="0 0 1024 1024" version="1.1" xmlns="http://www.w3.org/2000/svg" p-id="3990" xmlns:xlink="http://www.w3.org/1999/xlink" width="200" height="200"><path d="M511.998977 961.610044c-248.306272 0-449.607998-201.307865-449.607998-449.614138S263.692704 62.389956 511.998977 62.389956c248.364601 0 449.610044 201.299679 449.610044 449.606974S760.363577 961.610044 511.998977 961.610044L511.998977 961.610044zM718.186989 380.921639c8.457626-8.462742 8.457626-22.202675 0-30.658254l-45.927005-45.871747c-8.459672-8.459672-22.138206-8.459672-30.599925 0L511.603981 434.44874 381.546879 304.391638c-8.459672-8.459672-22.1423-8.459672-30.599925 0l-45.927005 45.871747c-8.457626 8.455579-8.457626 22.195511 0 30.658254l130.057101 130.053008L305.019948 641.031748c-8.457626 8.455579-8.457626 22.140253 0 30.599925L350.946954 717.555609c8.457626 8.404414 22.140253 8.404414 30.599925 0l130.057101-130.057101L641.661082 717.555609c8.461719 8.404414 22.140253 8.404414 30.599925 0l45.927005-45.922912c8.457626-8.459672 8.457626-22.144346 0-30.599925L588.129888 510.97567 718.186989 380.921639 718.186989 380.921639z" fill="#2c2c2c" p-id="3991"></path></svg>