<svg width="28" height="28" viewBox="0 0 28 28" fill="none" xmlns="http://www.w3.org/2000/svg">
<path id="times-circle" d="M14 0C6.272 0 0 6.272 0 14C0 21.728 6.272 28 14 28C21.728 28 28 21.728 28 14C28 6.272 21.728 0 14 0ZM18.942 17.458C19.348 17.864 19.348 18.536 18.942 18.942C18.732 19.152 18.466 19.25 18.2 19.25C17.934 19.25 17.668 19.152 17.458 18.942L14 15.484L10.542 18.942C10.332 19.152 10.066 19.25 9.8 19.25C9.534 19.25 9.268 19.152 9.058 18.942C8.652 18.536 8.652 17.864 9.058 17.458L12.516 14L9.058 10.542C8.652 10.136 8.652 9.46396 9.058 9.05796C9.464 8.65196 10.136 8.65196 10.542 9.05796L14 12.516L17.458 9.05796C17.864 8.65196 18.536 8.65196 18.942 9.05796C19.348 9.46396 19.348 10.136 18.942 10.542L15.484 14L18.942 17.458Z" fill="#FF4646"/>
</svg>
