<svg width="20" height="20" viewBox="0 0 20 20" fill="none" xmlns="http://www.w3.org/2000/svg">
<g id="times">
<path id="times_2" d="M15.4415 14.5589C15.6856 14.8031 15.6856 15.199 15.4415 15.4431C15.3198 15.5648 15.1598 15.6264 14.9998 15.6264C14.8398 15.6264 14.6798 15.5656 14.5581 15.4431L9.99979 10.8848L5.44146 15.4431C5.31979 15.5648 5.15979 15.6264 4.99979 15.6264C4.83979 15.6264 4.67979 15.5656 4.55813 15.4431C4.31396 15.199 4.31396 14.8031 4.55813 14.5589L9.11646 10.0006L4.55813 5.44232C4.31396 5.19815 4.31396 4.80229 4.55813 4.55813C4.80229 4.31396 5.19813 4.31396 5.4423 4.55813L10.0006 9.11648L14.559 4.55813C14.8031 4.31396 15.199 4.31396 15.4431 4.55813C15.6873 4.80229 15.6873 5.19815 15.4431 5.44232L10.8848 10.0006L15.4415 14.5589Z" fill="white"/>
</g>
</svg>
