<svg width="20" height="20" viewBox="0 0 20 20" fill="none" xmlns="http://www.w3.org/2000/svg">
<g id="trash">
<path id="trash_2" d="M17.5 4.375H14.5342C13.7833 4.375 13.7517 4.28 13.5458 3.66333L13.3775 3.1575C13.1217 2.39083 12.4075 1.875 11.5992 1.875H8.40083C7.59249 1.875 6.8775 2.39 6.6225 3.1575L6.45417 3.66333C6.24834 4.28083 6.21666 4.375 5.46583 4.375H2.5C2.155 4.375 1.875 4.655 1.875 5C1.875 5.345 2.155 5.625 2.5 5.625H3.58166L4.22084 15.2075C4.34417 17.0617 5.48084 18.125 7.33917 18.125H12.6617C14.5192 18.125 15.6558 17.0617 15.78 15.2075L16.4192 5.625H17.5C17.845 5.625 18.125 5.345 18.125 5C18.125 4.655 17.845 4.375 17.5 4.375ZM7.80833 3.5525C7.89416 3.29667 8.13166 3.125 8.40083 3.125H11.5992C11.8683 3.125 12.1067 3.29667 12.1917 3.5525L12.36 4.05833C12.3967 4.1675 12.4333 4.27333 12.4733 4.375H7.525C7.565 4.2725 7.60251 4.16666 7.63917 4.05833L7.80833 3.5525ZM14.5317 15.1242C14.4525 16.3183 13.8575 16.875 12.6608 16.875H7.33833C6.14167 16.875 5.5475 16.3192 5.4675 15.1242L4.83417 5.625H5.465C5.56917 5.625 5.65583 5.61417 5.74917 5.6075C5.7775 5.61167 5.80333 5.625 5.8325 5.625H14.1658C14.1958 5.625 14.2208 5.61167 14.2492 5.6075C14.3425 5.61417 14.4292 5.625 14.5333 5.625H15.1642L14.5317 15.1242ZM12.2917 9.16667V13.3333C12.2917 13.6783 12.0117 13.9583 11.6667 13.9583C11.3217 13.9583 11.0417 13.6783 11.0417 13.3333V9.16667C11.0417 8.82167 11.3217 8.54167 11.6667 8.54167C12.0117 8.54167 12.2917 8.82167 12.2917 9.16667ZM8.95833 9.16667V13.3333C8.95833 13.6783 8.67833 13.9583 8.33333 13.9583C7.98833 13.9583 7.70833 13.6783 7.70833 13.3333V9.16667C7.70833 8.82167 7.98833 8.54167 8.33333 8.54167C8.67833 8.54167 8.95833 8.82167 8.95833 9.16667Z" fill="white"/>
</g>
</svg>
