<svg width="24" height="24" viewBox="0 0 24 24" fill="none" xmlns="http://www.w3.org/2000/svg">
<g id="dislike">
<path id="dislike_2" d="M21.0002 5.5V12.5C21.0002 13.328 20.3292 14 19.5002 14H17.8003C17.6343 14 17.5002 13.866 17.5002 13.7V4.29999C17.5002 4.13399 17.6343 4 17.8003 4H19.5002C20.3292 4 21.0002 4.672 21.0002 5.5ZM15.7013 4H8.10229C6.09229 4 5.66219 4.82999 5.25219 6.04999L3.25219 12.05C2.60219 13.99 3.09229 16 6.10229 16H10.0022V19.24C10.0022 20.24 10.5023 21.18 11.3423 21.73C11.6123 21.91 11.9223 22 12.2223 22C12.8523 22 13.4623 21.62 13.7023 20.97L15.9873 14.046C15.9973 14.016 16.0022 13.984 16.0022 13.952V4.29999C16.0012 4.13399 15.8663 4 15.7013 4Z" fill="#130A00"/>
</g>
</svg>
