<svg width="24" height="24" viewBox="0 0 24 24" fill="none" xmlns="http://www.w3.org/2000/svg">
<g id="like">
<path id="like_2" d="M17.5 12.7V3.30005C17.5 3.13405 17.634 3 17.8 3H19.5C20.328 3 21 3.672 21 4.5V11.5C21 12.328 20.328 13 19.5 13H17.8C17.635 13 17.5 12.866 17.5 12.7ZM6.10205 15H10.002V18.24C10.002 19.24 10.502 20.18 11.342 20.73C11.612 20.91 11.922 21 12.222 21C12.852 21 13.462 20.62 13.702 19.97L15.9871 13.046C15.9971 13.016 16.002 12.984 16.002 12.952V3.30005C16.002 3.13405 15.868 3 15.702 3H8.10303C6.09303 3 5.66305 3.82999 5.25305 5.04999L3.25305 11.05C2.60205 12.99 3.09205 15 6.10205 15Z" fill="#FF3D00"/>
</g>
</svg>
