<svg width="18" height="18" viewBox="0 0 18 18" fill="none" xmlns="http://www.w3.org/2000/svg">
<path id="pen-line" d="M17.125 5.02564C17.1258 4.4123 16.8876 3.83564 16.4534 3.40231L14.5967 1.54572C14.1626 1.11238 13.5876 0.873192 12.9734 0.874026C12.3601 0.874859 11.7842 1.11481 11.3525 1.54897L1.0575 11.8915C0.939995 12.009 0.875 12.1674 0.875 12.3324V16.499C0.875 16.844 1.155 17.124 1.5 17.124H5.66667C5.83167 17.124 5.99088 17.0582 6.10754 16.9423L16.45 6.64653C16.885 6.21486 17.1242 5.63897 17.125 5.02564ZM5.40828 15.8748H2.125V12.5916L9.6191 5.06317L12.9376 8.38064L5.40828 15.8748ZM15.5684 5.76152L13.8234 7.49899L10.5009 4.17735L12.2383 2.43154C12.435 2.23404 12.6967 2.12567 12.9758 2.12484H12.9766C13.255 2.12484 13.5167 2.23315 13.7142 2.42981L15.5708 4.2865C15.7675 4.484 15.8758 4.74566 15.8758 5.02482C15.875 5.30316 15.7659 5.56485 15.5684 5.76152ZM17.125 16.4998C17.125 16.8448 16.845 17.1248 16.5 17.1248H10.6667C10.3217 17.1248 10.0417 16.8448 10.0417 16.4998C10.0417 16.1548 10.3217 15.8748 10.6667 15.8748H16.5C16.845 15.8748 17.125 16.1548 17.125 16.4998Z" fill="white"/>
</svg>
