<svg width="32" height="32" viewBox="0 0 32 32" fill="none" xmlns="http://www.w3.org/2000/svg">
<g id="SWFT AllChain Bridge">
<g id="SWFT AllChain Bridge_2">
<rect x="2.53516" y="2.66699" width="26.6667" height="26.6667" rx="5.33333" fill="#FFE6CD"/>
</g>
<g id="Download MetaMask The Premier Blockchain Wallet App and Browser E 1" clip-path="url(#clip0_1_2489)">
<path id="Vector" d="M24.732 6.51855L16.9453 12.2786L18.3972 8.883L24.732 6.51855Z" fill="#E17726" stroke="#E17726" stroke-width="0.148148" stroke-linecap="round" stroke-linejoin="round"/>
<path id="Vector_2" d="M6.77683 6.51904L14.4924 12.3265L13.1116 8.88941L6.77683 6.51904ZM21.9294 19.8702L19.8553 23.0346L24.2939 24.2553L25.562 19.9413L21.9294 19.8702ZM5.95312 19.9413L7.21535 24.2553L11.642 23.0346L9.57979 19.8702L5.95312 19.9413Z" fill="#E27625" stroke="#E27625" stroke-width="0.148148" stroke-linecap="round" stroke-linejoin="round"/>
<path id="Vector_3" d="M11.4006 14.5247L10.168 16.3854L14.5532 16.5869L14.4109 11.8639L11.4006 14.5306V14.5247ZM20.0998 14.5306L17.042 11.8047L16.9413 16.5869L21.3265 16.3854L20.0998 14.5306ZM11.6376 23.0343L14.2983 21.7543L12.0109 19.9765L11.6376 23.0343ZM17.208 21.7484L19.8509 23.0343L19.4954 19.9706L17.208 21.7484Z" fill="#E27625" stroke="#E27625" stroke-width="0.148148" stroke-linecap="round" stroke-linejoin="round"/>
<path id="Vector_4" d="M19.8579 23.0345L17.2149 21.7545L17.4282 23.473L17.4045 24.2019L19.8579 23.0345ZM11.6445 23.0345L14.1097 24.2019L14.0919 23.473L14.3053 21.7545L11.6445 23.0345Z" fill="#D5BFB2" stroke="#D5BFB2" stroke-width="0.148148" stroke-linecap="round" stroke-linejoin="round"/>
<path id="Vector_5" d="M14.1457 18.8331L11.9531 18.1931L13.5057 17.482L14.1516 18.8331H14.1457ZM17.3516 18.8331L18.0035 17.4761L19.562 18.1872L17.3516 18.839V18.8331Z" fill="#233447" stroke="#233447" stroke-width="0.148148" stroke-linecap="round" stroke-linejoin="round"/>
<path id="Vector_6" d="M11.6364 23.0341L12.0216 19.8697L9.57422 19.9408L11.6364 23.0341ZM19.4764 19.8697L19.8498 23.0341L21.9238 19.9408L19.4764 19.8697ZM21.3313 16.3853L16.9461 16.5867L17.349 18.8386L18.0009 17.4756L19.5594 18.1867L21.3313 16.3853ZM11.9505 18.1927L13.5031 17.4816L14.149 18.8327L14.5579 16.5808L10.1727 16.3853L11.9505 18.1927Z" fill="#CC6228" stroke="#CC6228" stroke-width="0.148148" stroke-linecap="round" stroke-linejoin="round"/>
<path id="Vector_7" d="M10.1758 16.3851L12.0128 19.9703L11.9536 18.1925L10.1758 16.3851ZM19.5624 18.1925L19.4913 19.9703L21.3284 16.3851L19.5624 18.1925ZM14.561 16.5866L14.1462 18.8385L14.6676 21.4933L14.7862 17.9911L14.561 16.5866ZM16.9432 16.5866L16.7299 17.9851L16.8365 21.4933L17.3521 18.8325L16.9432 16.5807V16.5866Z" fill="#E27525" stroke="#E27525" stroke-width="0.148148" stroke-linecap="round" stroke-linejoin="round"/>
<path id="Vector_8" d="M17.3537 18.8329L16.8381 21.4936L17.2114 21.7544L19.4929 19.9766L19.564 18.1929L17.3537 18.8329ZM11.9551 18.1929L12.0144 19.9706L14.3018 21.7484L14.6692 21.4936L14.1537 18.8329L11.9492 18.1929H11.9551Z" fill="#F5841F" stroke="#F5841F" stroke-width="0.148148" stroke-linecap="round" stroke-linejoin="round"/>
<path id="Vector_9" d="M17.4105 24.2023L17.4282 23.4734L17.2268 23.3075H14.2875L14.0919 23.4734L14.1097 24.2023L11.6445 23.0349L12.5097 23.746L14.2579 24.949H17.2505L19.0045 23.7401L19.8579 23.0349L17.4045 24.2023H17.4105Z" fill="#C0AC9D" stroke="#C0AC9D" stroke-width="0.148148" stroke-linecap="round" stroke-linejoin="round"/>
<path id="Vector_10" d="M17.2089 21.749L16.8356 21.4941H14.6667L14.2993 21.7549L14.0859 23.4734L14.2815 23.3075H17.2208L17.4222 23.4734L17.2089 21.7549V21.749Z" fill="#161616" stroke="#161616" stroke-width="0.148148" stroke-linecap="round" stroke-linejoin="round"/>
<path id="Vector_11" d="M25.0641 12.6519L25.7159 9.48152L24.7322 6.51855L17.2063 12.0889L20.1041 14.5245L24.193 15.7156L25.0937 14.6667L24.7026 14.3823L25.3248 13.8134L24.8507 13.446L25.473 12.9719L25.0582 12.6519H25.0641ZM5.79297 9.47559L6.45667 12.6519L6.03001 12.966L6.66408 13.44L6.19001 13.8134L6.8063 14.3823L6.41519 14.6667L7.31593 15.7156L11.4048 14.5304L14.3026 12.083L6.77667 6.51855L5.79297 9.47559Z" fill="#763E1A" stroke="#763E1A" stroke-width="0.148148" stroke-linecap="round" stroke-linejoin="round"/>
<path id="Vector_12" d="M24.1931 15.7159L20.1042 14.5307L21.3368 16.3855L19.4998 19.9707L21.9294 19.9411H25.562L24.1931 15.7159ZM11.405 14.5248L7.31609 15.7159L5.95312 19.9411H9.58572L12.0153 19.9707L10.1783 16.3855L11.4109 14.5248H11.405ZM16.9457 16.587L17.2124 12.0833L18.3976 8.8833H13.1116L14.2968 12.0833L14.5635 16.587L14.6642 17.9974V21.4937H16.8391L16.8509 17.9974L16.9457 16.587Z" fill="#F5841F" stroke="#F5841F" stroke-width="0.148148" stroke-linecap="round" stroke-linejoin="round"/>
</g>
</g>
<defs>
<clipPath id="clip0_1_2489">
<rect width="21.3333" height="21.3333" fill="white" transform="translate(5.19922 5.3335)"/>
</clipPath>
</defs>
</svg>
