<svg width="17" height="22" viewBox="0 0 17 22" fill="none" xmlns="http://www.w3.org/2000/svg">
<path id="microphone" d="M9.32258 18.5279V21.1429C9.32258 21.616 8.95406 22 8.5 22C8.04594 22 7.67742 21.616 7.67742 21.1429V18.5279C3.37477 18.0959 0 14.3086 0 9.71429C0 9.24114 0.368516 8.85714 0.822581 8.85714C1.27665 8.85714 1.64516 9.24114 1.64516 9.71429C1.64516 13.6526 4.72052 16.8571 8.5 16.8571C12.2795 16.8571 15.3548 13.6526 15.3548 9.71429C15.3548 9.24114 15.7234 8.85714 16.1774 8.85714C16.6315 8.85714 17 9.24114 17 9.71429C17 14.3086 13.6252 18.0948 9.32258 18.5279ZM8.5 0C5.7789 0 3.56452 2.30743 3.56452 5.14286V9.71429C3.56452 12.5497 5.7789 14.8571 8.5 14.8571C11.2211 14.8571 13.4355 12.5497 13.4355 9.71429V5.14286C13.4355 2.30743 11.2211 0 8.5 0Z" fill="white"/>
</svg>
