<?xml version="1.0" standalone="no"?><!DOCTYPE svg PUBLIC "-//W3C//DTD SVG 1.1//EN" "http://www.w3.org/Graphics/SVG/1.1/DTD/svg11.dtd"><svg t="1705300101267" class="icon" viewBox="0 0 1024 1024" version="1.1" xmlns="http://www.w3.org/2000/svg" p-id="5016" xmlns:xlink="http://www.w3.org/1999/xlink" width="200" height="200"><path d="M92.362549 92.362549m270.065935 0l299.13178 0q270.065934 0 270.065934 270.065935l0 299.13178q0 270.065934-270.065934 270.065934l-299.13178 0q-270.065934 0-270.065935-270.065934l0-299.13178q0-270.065934 270.065935-270.065935Z" fill="#E9F2FF" p-id="5017"></path><path d="M409.971341 241.934066H253.940747c-6.639121 0-12.006681 5.378813-12.006681 12.006681v156.030594c0 6.639121 5.378813 12.006681 12.006681 12.006681h156.030594c6.639121 0 12.006681-5.378813 12.006681-12.006681V253.940747c0-6.639121-5.378813-12.006681-12.006681-12.006681z m180.122725 180.043956H434.063473c-6.639121 0-12.006681 5.378813-12.006682 12.006681v156.030594c0 6.639121 5.36756 12.006681 12.006682 12.006681H590.094066c6.639121 0 12.006681-5.378813 12.006681-12.006681V433.984703c0-6.639121-5.378813-12.006681-12.006681-12.006681z m23.934593-180.043956h156.030594c6.639121 0 12.006681 5.378813 12.006681 12.006681v156.030594c0 6.639121-5.378813 12.006681-12.006681 12.006681H614.028659c-6.639121 0-12.006681-5.378813-12.006681-12.006681V253.940747c0-6.639121 5.378813-12.006681 12.006681-12.006681z m-204.057318 360.087912H253.940747c-6.639121 0-12.006681 5.378813-12.006681 12.006681v156.030594c0 6.639121 5.378813 12.006681 12.006681 12.006681h156.030594c6.639121 0 12.006681-5.378813 12.006681-12.006681V614.028659c0-6.639121-5.378813-12.006681-12.006681-12.006681z m204.057318 0h156.030594c6.639121 0 12.006681 5.378813 12.006681 12.006681v156.030594c0 6.639121-5.378813 12.006681-12.006681 12.006681H614.028659c-6.639121 0-12.006681-5.378813-12.006681-12.006681V614.028659c0-6.639121 5.378813-12.006681 12.006681-12.006681z" fill="#000000" p-id="5018"></path></svg>