<svg width="227" height="70" viewBox="0 0 227 70" fill="none" xmlns="http://www.w3.org/2000/svg">
<path id="PLUS" d="M51.56 22.248C51.56 26.792 49.928 31.176 46.664 35.4C44.936 37.576 42.344 39.368 38.888 40.776C35.496 42.12 31.464 42.792 26.792 42.792H16.616V69H0.2V1.608H26.792C34.6 1.608 40.68 3.624 45.032 7.65599C49.384 11.688 51.56 16.552 51.56 22.248ZM16.616 30.312H26.792C29.288 30.312 31.24 29.576 32.648 28.104C34.12 26.632 34.856 24.712 34.856 22.344C34.856 19.912 34.12 17.928 32.648 16.392C31.176 14.856 29.224 14.088 26.792 14.088H16.616V30.312ZM61.4188 1.608H77.8348V56.52H98.2828V69H61.4188V1.608ZM107.068 41.832V1.608H123.484V41.832C123.484 45.864 124.476 48.968 126.46 51.144C128.444 53.32 131.356 54.408 135.196 54.408C139.036 54.408 141.98 53.32 144.028 51.144C146.076 48.968 147.1 45.864 147.1 41.832V1.608H163.516V41.832C163.516 47.784 162.108 52.936 159.292 57.288C156.54 61.576 153.02 64.712 148.732 66.696C144.508 68.68 139.9 69.672 134.908 69.672C127.1 69.672 120.508 67.24 115.132 62.376C109.756 57.512 107.068 50.664 107.068 41.832ZM200.423 13.608C198.375 13.608 196.679 14.152 195.335 15.24C194.055 16.328 193.415 17.896 193.415 19.944C193.415 21.992 194.023 23.656 195.239 24.936C196.455 26.152 198.023 27.112 199.943 27.816C201.927 28.456 204.103 29.096 206.471 29.736C208.903 30.312 211.303 31.048 213.671 31.944C216.039 32.776 218.183 33.832 220.103 35.112C222.087 36.392 223.687 38.216 224.903 40.584C226.119 42.888 226.727 45.672 226.727 48.936C226.727 54.632 224.391 59.528 219.719 63.624C215.111 67.656 208.999 69.672 201.383 69.672C193.831 69.672 187.719 67.848 183.047 64.2C178.439 60.552 176.135 55.368 176.135 48.648H193.607C194.055 54.024 196.807 56.712 201.863 56.712C204.231 56.712 206.087 56.104 207.431 54.888C208.775 53.608 209.447 52.008 209.447 50.088C209.447 48.168 208.839 46.6 207.623 45.384C206.407 44.168 204.807 43.208 202.823 42.504C200.903 41.8 198.727 41.16 196.295 40.584C193.927 39.944 191.559 39.176 189.191 38.28C186.823 37.384 184.647 36.328 182.663 35.112C180.743 33.832 179.175 32.04 177.959 29.736C176.743 27.368 176.135 24.584 176.135 21.384C176.135 15.112 178.471 10.088 183.143 6.31199C187.815 2.536 193.767 0.647999 200.999 0.647999C208.295 0.647999 214.183 2.312 218.663 5.64C223.143 8.904 225.479 14.088 225.671 21.192H207.815C207.559 18.76 206.759 16.904 205.415 15.624C204.135 14.28 202.471 13.608 200.423 13.608Z" fill="url(#paint0_linear_6465_2987)" fill-opacity="0.07"/>
<defs>
<linearGradient id="paint0_linear_6465_2987" x1="8" y1="24" x2="233" y2="41" gradientUnits="userSpaceOnUse">
<stop stop-color="#C27500"/>
<stop offset="0.966318" stop-color="#C27500" stop-opacity="0.35"/>
</linearGradient>
</defs>
</svg>
