<svg width="24" height="24" viewBox="0 0 24 24" fill="none" xmlns="http://www.w3.org/2000/svg">
<g id="repeat">
<path id="repeat_2" d="M4 12.5003C4 13.2153 4.16494 13.9044 4.49194 14.5484C4.74094 15.0414 4.544 15.6424 4.052 15.8924C3.906 15.9654 3.75195 16.0003 3.60095 16.0003C3.23595 16.0003 2.88401 15.8002 2.70801 15.4522C2.24501 14.5382 2 13.5173 2 12.5003C2 8.67328 4.673 6.00028 8.5 6.00028H14.5861L14.293 5.70731C13.902 5.31631 13.902 4.68425 14.293 4.29325C14.684 3.90225 15.316 3.90225 15.707 4.29325L17.7061 6.29227C17.7991 6.38527 17.872 6.4952 17.923 6.6182C18.024 6.8622 18.024 7.13836 17.923 7.38236C17.872 7.50536 17.7991 7.61529 17.7061 7.70829L15.707 9.70731C15.512 9.90231 15.256 10.0003 15 10.0003C14.744 10.0003 14.488 9.90231 14.293 9.70731C13.902 9.31631 13.902 8.68425 14.293 8.29325L14.5861 8.00028H8.5C5.767 8.00028 4 9.76728 4 12.5003ZM21.292 9.54838C21.043 9.05538 20.444 8.85719 19.948 9.10819C19.456 9.35819 19.2591 9.95919 19.5081 10.4522C19.8351 11.0972 20 11.7853 20 12.5003C20 15.2333 18.233 17.0003 15.5 17.0003H9.41394L9.70703 16.7073C10.098 16.3163 10.098 15.6843 9.70703 15.2933C9.31603 14.9023 8.68397 14.9023 8.29297 15.2933L6.29297 17.2933C5.90197 17.6843 5.90197 18.3163 6.29297 18.7073L8.29297 20.7073C8.48797 20.9023 8.744 21.0003 9 21.0003C9.256 21.0003 9.51203 20.9023 9.70703 20.7073C10.098 20.3163 10.098 19.6843 9.70703 19.2933L9.41394 19.0003H15.5C19.327 19.0003 22 16.3273 22 12.5003C22 11.4833 21.755 10.4624 21.292 9.54838Z" fill="white"/>
</g>
</svg>
