<svg width="18" height="20" viewBox="0 0 18 20" fill="none" xmlns="http://www.w3.org/2000/svg">
<path id="nut" d="M8.99997 6.25042C6.93197 6.25042 5.24997 7.93242 5.24997 10.0004C5.24997 12.0684 6.93197 13.7504 8.99997 13.7504C11.068 13.7504 12.75 12.0684 12.75 10.0004C12.75 7.93242 11.068 6.25042 8.99997 6.25042ZM8.99997 12.2504C7.75897 12.2504 6.74997 11.2414 6.74997 10.0004C6.74997 8.75942 7.75897 7.75042 8.99997 7.75042C10.241 7.75042 11.25 8.75942 11.25 10.0004C11.25 11.2414 10.241 12.2504 8.99997 12.2504ZM16.223 4.18243L10.723 0.744406C9.67598 0.0904062 8.32497 0.0904062 7.27797 0.744406L1.77797 4.18243C0.820969 4.78043 0.250977 5.81041 0.250977 6.93841V13.0624C0.250977 14.1904 0.821969 15.2204 1.77797 15.8184L7.27797 19.2564C7.80097 19.5834 8.40098 19.7464 9.00098 19.7464C9.60098 19.7464 10.2 19.5824 10.724 19.2564L16.224 15.8184C17.181 15.2204 17.751 14.1904 17.751 13.0624V6.93841C17.75 5.81041 17.179 4.78043 16.223 4.18243ZM16.25 13.0624C16.25 13.6694 15.942 14.2244 15.428 14.5464L9.92796 17.9844C9.36496 18.3364 8.63597 18.3364 8.07297 17.9844L2.57297 14.5464C2.05797 14.2244 1.75098 13.6704 1.75098 13.0624V6.93841C1.75098 6.33141 2.05897 5.77643 2.57297 5.45443L8.07297 2.01641C8.35497 1.84041 8.67798 1.75243 9.00098 1.75243C9.32398 1.75243 9.64697 1.84041 9.92897 2.01641L15.429 5.45443C15.944 5.77643 16.251 6.33041 16.251 6.93841V13.0624H16.25Z" fill="white"/>
</svg>
