<svg width="24" height="24" viewBox="0 0 24 24" fill="none" xmlns="http://www.w3.org/2000/svg">
<g id="inbox-upload">
<path id="inbox-upload_2" d="M21.75 13.6169V18.0009C21.75 20.4189 20.418 21.7509 18 21.7509H6C3.582 21.7509 2.25 20.4189 2.25 18.0009V13.6169C2.25 13.1079 2.35198 12.612 2.55298 12.141L4.53198 7.52395C5.03298 6.35495 5.506 5.25094 7.979 5.25094C8.393 5.25094 8.729 5.58694 8.729 6.00094C8.729 6.41494 8.393 6.75094 7.979 6.75094C6.495 6.75094 6.35989 7.06695 5.91089 8.11495L4.03101 12.5009H6.95605C8.11605 12.5009 9.19504 13.1599 9.84204 14.2639C10.288 15.0269 11.115 15.5009 12.001 15.5009C12.887 15.5009 13.7139 15.0269 14.1599 14.2639C14.8059 13.1599 15.8859 12.5009 17.0459 12.5009H19.9719L18.0911 8.11495C17.6421 7.06695 17.5069 6.75094 16.0229 6.75094C15.6089 6.75094 15.2729 6.41494 15.2729 6.00094C15.2729 5.58694 15.6089 5.25094 16.0229 5.25094C18.4969 5.25094 18.969 6.35495 19.47 7.52395L21.449 12.1399C21.648 12.6109 21.75 13.1079 21.75 13.6169ZM10.53 4.53094L11.25 3.81094V10.0009C11.25 10.4149 11.586 10.7509 12 10.7509C12.414 10.7509 12.75 10.4149 12.75 10.0009V3.81194L13.47 4.53194C13.616 4.67794 13.808 4.75195 14 4.75195C14.192 4.75195 14.384 4.67894 14.53 4.53194C14.823 4.23894 14.823 3.76394 14.53 3.47094L12.53 1.47094C12.461 1.40194 12.3779 1.34695 12.2859 1.30895C12.1029 1.23295 11.8959 1.23295 11.7129 1.30895C11.6209 1.34695 11.538 1.40194 11.469 1.47094L9.46899 3.47094C9.17599 3.76394 9.17599 4.23894 9.46899 4.53194C9.76299 4.82394 10.237 4.82394 10.53 4.53094Z" fill="#FF870F"/>
</g>
</svg>
