<svg width="23" height="18" viewBox="0 0 23 18" fill="none" xmlns="http://www.w3.org/2000/svg">
<path id="Vector" d="M4.47084 0.824136C2.25884 0.992136 1.30684 3.33014 1.62884 5.37414C1.69884 5.82214 1.60084 6.07413 1.33484 6.36813C-0.0371573 7.90813 -0.345157 9.53214 0.382843 11.4361C0.998843 13.0741 1.95084 14.4181 3.14084 15.5101C4.44284 16.7141 5.94084 17.1621 7.57884 17.1901C9.00684 17.2041 10.4488 17.1901 11.7788 16.5741C12.9688 16.0281 12.6748 16.1821 13.3608 15.5661C13.9348 15.0481 14.6628 14.4881 15.3208 14.2781C16.5108 13.9001 17.2248 13.5361 18.4148 14.0681C19.0588 14.6561 19.2968 14.9221 19.9688 15.4121C20.9348 16.1401 21.9428 16.2101 22.9648 15.5521C22.9228 15.5521 22.8808 15.5241 22.8388 15.5241C21.5648 15.7481 20.4588 15.0201 19.4648 13.7041C18.9748 13.0601 17.7148 11.8421 17.2808 11.5201C16.7768 11.1561 16.2028 11.0161 15.3348 11.2541C14.5088 11.4921 14.1588 11.6041 13.3748 12.1221C12.5628 12.6541 12.4648 12.7101 11.0928 13.2701C9.44084 13.9421 7.73284 13.4241 6.08084 12.6541C4.17684 11.7581 3.22484 9.67213 3.68684 7.15213C4.10684 4.87013 5.82884 3.42814 7.80284 3.62414C9.81884 3.82014 10.7988 5.13614 11.0088 7.26414C11.1068 8.28614 10.7568 9.12614 10.0428 9.74214C9.55284 10.1621 9.04884 10.1761 8.64284 9.81214C8.19484 9.39214 8.01284 8.65014 8.22284 8.00614C8.32084 7.72614 8.43284 7.47414 8.54484 7.19414C7.29884 7.34814 6.69684 8.30014 6.97684 9.65814C7.22884 10.8761 7.83084 11.7301 8.86684 11.9961C10.0148 12.2761 11.0508 11.9401 11.8348 10.8481C12.2968 10.2041 12.3528 9.39214 12.2268 8.58014C12.1568 8.13214 12.2548 7.82414 12.4788 7.48814C13.0108 6.76014 13.3608 5.92013 13.2768 4.94013C13.1788 3.51213 12.2548 2.32214 11.0088 1.88814C9.90284 1.51014 8.83884 1.74814 7.80284 2.21014C7.48084 2.35014 7.31284 2.28014 7.03284 2.02814C6.51484 1.55214 5.91284 1.23014 5.33884 0.838135C5.15684 0.768135 4.58284 0.810136 4.47084 0.824136Z" fill="#88593D"/>
</svg>
