<svg width="23" height="18" viewBox="0 0 23 18" fill="none" xmlns="http://www.w3.org/2000/svg">
<path id="Vector" d="M18.494 0.824136C20.706 0.992136 21.658 3.33014 21.336 5.37414C21.266 5.82214 21.364 6.07413 21.63 6.36813C23.002 7.90813 23.31 9.53214 22.582 11.4361C21.966 13.0741 21.014 14.4181 19.824 15.5101C18.522 16.7141 17.024 17.1621 15.386 17.1901C13.958 17.2041 12.516 17.1901 11.186 16.5741C9.996 16.0281 10.29 16.1821 9.604 15.5661C9.03 15.0481 8.302 14.4881 7.644 14.2781C6.454 13.9001 5.74 13.5361 4.55 14.0681C3.906 14.6561 3.668 14.9221 2.996 15.4121C2.03 16.1401 1.022 16.2101 0 15.5521C0.042 15.5521 0.084 15.5241 0.126 15.5241C1.4 15.7481 2.506 15.0201 3.5 13.7041C3.99 13.0601 5.25 11.8421 5.684 11.5201C6.188 11.1561 6.762 11.0161 7.63 11.2541C8.456 11.4921 8.806 11.6041 9.59 12.1221C10.402 12.6541 10.5 12.7101 11.872 13.2701C13.524 13.9421 15.232 13.4241 16.884 12.6541C18.788 11.7581 19.74 9.67213 19.278 7.15213C18.858 4.87013 17.136 3.42814 15.162 3.62414C13.146 3.82014 12.166 5.13614 11.956 7.26414C11.858 8.28614 12.208 9.12614 12.922 9.74214C13.412 10.1621 13.916 10.1761 14.322 9.81214C14.77 9.39214 14.952 8.65014 14.742 8.00614C14.644 7.72614 14.532 7.47414 14.42 7.19414C15.666 7.34814 16.268 8.30014 15.988 9.65814C15.736 10.8761 15.134 11.7301 14.098 11.9961C12.95 12.2761 11.914 11.9401 11.13 10.8481C10.668 10.2041 10.612 9.39214 10.738 8.58014C10.808 8.13214 10.71 7.82414 10.486 7.48814C9.954 6.76014 9.604 5.92013 9.688 4.94013C9.786 3.51213 10.71 2.32214 11.956 1.88814C13.062 1.51014 14.126 1.74814 15.162 2.21014C15.484 2.35014 15.652 2.28014 15.932 2.02814C16.45 1.55214 17.052 1.23014 17.626 0.838135C17.808 0.768135 18.382 0.810136 18.494 0.824136Z" fill="#88593D"/>
</svg>
