<svg width="22" height="22" viewBox="0 0 22 22" fill="none" xmlns="http://www.w3.org/2000/svg">
<path id="Vector" d="M11.7499 7.00089C11.7499 6.58668 11.4141 6.25089 10.9999 6.25089C10.5857 6.25089 10.2499 6.58668 10.2499 7.00089H11.7499ZM10.2499 15.0009C10.2499 15.4151 10.5857 15.7509 10.9999 15.7509C11.4141 15.7509 11.7499 15.4151 11.7499 15.0009H10.2499ZM14.7499 8.00089C14.7499 7.58668 14.4141 7.25089 13.9999 7.25089C13.5857 7.25089 13.2499 7.58668 13.2499 8.00089H14.7499ZM13.2499 14.0009C13.2499 14.4151 13.5857 14.7509 13.9999 14.7509C14.4141 14.7509 14.7499 14.4151 14.7499 14.0009H13.2499ZM17.7499 10.0009C17.7499 9.58668 17.4141 9.25089 16.9999 9.25089C16.5857 9.25089 16.2499 9.58668 16.2499 10.0009H17.7499ZM16.2499 12.0009C16.2499 12.4151 16.5857 12.7509 16.9999 12.7509C17.4141 12.7509 17.7499 12.4151 17.7499 12.0009H16.2499ZM8.74994 8.00089C8.74994 7.58668 8.41415 7.25089 7.99994 7.25089C7.58572 7.25089 7.24994 7.58668 7.24994 8.00089H8.74994ZM7.24994 14.0009C7.24994 14.4151 7.58572 14.7509 7.99994 14.7509C8.41415 14.7509 8.74994 14.4151 8.74994 14.0009H7.24994ZM5.74994 10.0009C5.74994 9.58667 5.41415 9.25089 4.99994 9.25089C4.58572 9.25089 4.24994 9.58668 4.24994 10.0009H5.74994ZM4.24994 12.0009C4.24994 12.4151 4.58572 12.7509 4.99994 12.7509C5.41415 12.7509 5.74994 12.4151 5.74994 12.0009H4.24994ZM15.8954 2.02584L16.2377 1.35853V1.35853L15.8954 2.02584ZM16.3248 2.27378L15.9181 2.9039L16.3248 2.27378ZM5.67504 2.27378L5.2683 1.64365L5.67504 2.27378ZM6.10448 2.02584L5.76215 1.35853V1.35853L6.10448 2.02584ZM0.779589 11.2488L1.52867 11.2116L0.779589 11.2488ZM0.779589 10.753L0.0305113 10.7158L0.779589 10.753ZM6.10448 19.9759L5.76215 20.6433H5.76215L6.10448 19.9759ZM5.67504 19.728L6.08179 19.0979L5.67504 19.728ZM16.3248 19.728L16.7316 20.3581L16.3248 19.728ZM15.8954 19.9759L16.2377 20.6433L15.8954 19.9759ZM21.2203 11.2488L21.9694 11.286L21.2203 11.2488ZM21.2203 10.753L20.4712 10.7901L21.2203 10.753ZM10.2499 7.00089V15.0009H11.7499V7.00089H10.2499ZM13.2499 8.00089V14.0009H14.7499V8.00089H13.2499ZM16.2499 10.0009V12.0009H17.7499V10.0009H16.2499ZM7.24994 8.00089L7.24994 14.0009H8.74994L8.74994 8.00089H7.24994ZM4.24994 10.0009L4.24994 12.0009H5.74994L5.74994 10.0009H4.24994ZM10.9999 2.22461C12.2867 2.22461 13.2031 2.2253 13.9332 2.29054C14.649 2.3545 15.1318 2.47707 15.5531 2.69316L16.2377 1.35853C15.5844 1.02338 14.8932 0.870337 14.0667 0.79649C13.2545 0.723921 12.2604 0.724609 10.9999 0.724609V2.22461ZM19.8995 5.86275C19.2692 4.77113 18.7727 3.90986 18.3038 3.2428C17.8266 2.56399 17.3485 2.04187 16.7316 1.64365L15.9181 2.9039C16.3158 3.16065 16.6634 3.5175 17.0767 4.10544C17.4983 4.70512 17.957 5.49836 18.6004 6.61275L19.8995 5.86275ZM15.5531 2.69316C15.6781 2.75732 15.8 2.82766 15.9181 2.9039L16.7316 1.64365C16.5718 1.5405 16.407 1.44534 16.2377 1.35853L15.5531 2.69316ZM3.39945 6.61275C4.04285 5.49836 4.50162 4.70512 4.92318 4.10544C5.33648 3.5175 5.68405 3.16065 6.08179 2.9039L5.2683 1.64365C4.65139 2.04187 4.17323 2.56399 3.69604 3.2428C3.22712 3.90986 2.73066 4.77113 2.10042 5.86275L3.39945 6.61275ZM10.9999 0.724609C9.73944 0.724609 8.74533 0.723921 7.93318 0.796489C7.10672 0.870336 6.41547 1.02338 5.76215 1.35853L6.44681 2.69316C6.86803 2.47707 7.35086 2.3545 8.06668 2.29054C8.7968 2.2253 9.71315 2.22461 10.9999 2.22461V0.724609ZM6.08179 2.9039C6.1999 2.82766 6.32173 2.75732 6.44681 2.69316L5.76215 1.35853C5.59292 1.44534 5.4281 1.5405 5.2683 1.64365L6.08179 2.9039ZM3.39945 15.389C2.75606 14.2746 2.29848 13.4807 1.98992 12.8158C1.6874 12.1639 1.55214 11.6845 1.52867 11.2116L0.0305112 11.286C0.0669215 12.0194 0.280012 12.6945 0.629287 13.4472C0.972517 14.1868 1.47017 15.0474 2.10042 16.139L3.39945 15.389ZM2.10042 5.86275C1.47017 6.95437 0.972517 7.81495 0.629287 8.55458C0.280012 9.30723 0.0669215 9.9824 0.0305113 10.7158L1.52867 10.7901C1.55214 10.3173 1.6874 9.83788 1.98992 9.18599C2.29848 8.52107 2.75606 7.72714 3.39945 6.61275L2.10042 5.86275ZM1.52867 11.2116C1.52169 11.0712 1.52169 10.9306 1.52867 10.7901L0.0305113 10.7158C0.0210796 10.9057 0.0210796 11.096 0.0305112 11.286L1.52867 11.2116ZM10.9999 19.7772C9.71315 19.7772 8.7968 19.7765 8.06668 19.7112C7.35086 19.6473 6.86803 19.5247 6.44681 19.3086L5.76215 20.6433C6.41546 20.9784 7.10672 21.1314 7.93318 21.2053C8.74533 21.2779 9.73944 21.2772 10.9999 21.2772V19.7772ZM2.10042 16.139C2.73066 17.2306 3.22712 18.0919 3.69604 18.759C4.17323 19.4378 4.65139 19.9599 5.26829 20.3581L6.08179 19.0979C5.68405 18.8411 5.33648 18.4843 4.92318 17.8963C4.50162 17.2967 4.04285 16.5034 3.39945 15.389L2.10042 16.139ZM6.44681 19.3086C6.32173 19.2445 6.1999 19.1741 6.08179 19.0979L5.26829 20.3581C5.42809 20.4613 5.59292 20.5564 5.76215 20.6433L6.44681 19.3086ZM18.6004 15.389C17.957 16.5034 17.4983 17.2967 17.0767 17.8963C16.6634 18.4843 16.3158 18.8411 15.9181 19.0979L16.7316 20.3581C17.3485 19.9599 17.8266 19.4378 18.3038 18.759C18.7727 18.0919 19.2692 17.2306 19.8995 16.139L18.6004 15.389ZM10.9999 21.2772C12.2604 21.2772 13.2545 21.2779 14.0667 21.2053C14.8931 21.1314 15.5844 20.9784 16.2377 20.6433L15.5531 19.3086C15.1318 19.5247 14.649 19.6473 13.9332 19.7112C13.2031 19.7765 12.2867 19.7772 10.9999 19.7772V21.2772ZM15.9181 19.0979C15.8 19.1741 15.6781 19.2445 15.5531 19.3086L16.2377 20.6433C16.4069 20.5564 16.5718 20.4613 16.7316 20.3581L15.9181 19.0979ZM19.8995 16.139C20.5297 15.0474 21.0274 14.1868 21.3706 13.4472C21.7199 12.6945 21.9329 12.0194 21.9694 11.286L20.4712 11.2116C20.4477 11.6845 20.3125 12.1639 20.01 12.8158C19.7014 13.4807 19.2438 14.2746 18.6004 15.389L19.8995 16.139ZM18.6004 6.61275C19.2438 7.72714 19.7014 8.52107 20.01 9.18599C20.3125 9.83788 20.4477 10.3173 20.4712 10.7901L21.9694 10.7158C21.9329 9.9824 21.7199 9.30724 21.3706 8.55458C21.0274 7.81495 20.5297 6.95437 19.8995 5.86275L18.6004 6.61275ZM21.9694 11.286C21.9788 11.096 21.9788 10.9057 21.9694 10.7158L20.4712 10.7901C20.4782 10.9306 20.4782 11.0712 20.4712 11.2116L21.9694 11.286Z" fill="black"/>
</svg>
