<?xml version="1.0" standalone="no"?><!DOCTYPE svg PUBLIC "-//W3C//DTD SVG 1.1//EN" "http://www.w3.org/Graphics/SVG/1.1/DTD/svg11.dtd"><svg t="1695019977316" class="icon" viewBox="0 0 1024 1024" version="1.1" xmlns="http://www.w3.org/2000/svg" p-id="5115" xmlns:xlink="http://www.w3.org/1999/xlink" width="200" height="200"><path d="M670.72 481.9968a40.8576 40.8576 0 0 1 14.4384 38.912 327.168 327.168 0 0 1-282.2656 274.2272v84.2752a40.8576 40.8576 0 0 1-81.5104 4.7616l-0.3072-4.7616V795.136a327.168 327.168 0 0 1-282.624-276.1728 40.8576 40.8576 0 0 1 80.896-11.9808 245.4016 245.4016 0 0 0 485.0176 1.4336 40.8576 40.8576 0 0 1 66.4064-26.4192zM361.984 102.7072A163.5328 163.5328 0 0 1 525.4144 266.24v204.3904a163.5328 163.5328 0 1 1-327.0144 0V266.24a163.5328 163.5328 0 0 1 163.5328-163.5328z m474.8288-45.0048a32 32 0 0 1 45.2608 0 317.952 317.952 0 0 1 93.696 226.304c0 85.504-33.28 165.8368-93.696 226.304a32 32 0 0 1-45.2608-45.312 256.3072 256.3072 0 0 0 0-361.984 32 32 0 0 1 0-45.312z m-135.7824 101.888a32 32 0 0 1 45.2608 0 176.1792 176.1792 0 0 1 0 248.832 32 32 0 0 1-45.2608-45.2096 112.128 112.128 0 0 0 0-158.4128 32 32 0 0 1 0-45.2608z" p-id="5116" fill="#ffefdd"></path></svg>