<?xml version="1.0" standalone="no"?><!DOCTYPE svg PUBLIC "-//W3C//DTD SVG 1.1//EN" "http://www.w3.org/Graphics/SVG/1.1/DTD/svg11.dtd"><svg t="1695017892326" class="icon" viewBox="0 0 1024 1024" version="1.1" xmlns="http://www.w3.org/2000/svg" p-id="4016" xmlns:xlink="http://www.w3.org/1999/xlink" width="200" height="200"><path d="M827.246871 451.075419c-12.94994-0.588401-23.925922 9.432837-24.51637 22.382776-0.093121 2.062985-0.418532 6.353708-1.106194 12.542664-1.170662 10.54824-2.959402 22.35924-5.490038 35.106566-7.226588 36.413328-18.898419 72.794933-35.917024 106.534362-47.672766 94.508467-126.925784 150.334937-248.217245 150.71663-121.290437-0.381693-200.546525-56.208163-248.217245-150.71663-17.018605-33.739429-28.692482-70.120011-35.919071-106.534362-2.529613-12.747325-4.317329-24.558325-5.487991-35.106566-0.687662-6.188956-1.014096-10.479679-1.108241-12.542664-0.588401-12.94994-11.564383-22.971178-24.514323-22.382776-12.951987 0.588401-22.973224 11.564383-22.382776 24.51637 0.5137 11.339256 2.63092 30.394241 7.446599 54.654784 8.000208 40.316218 20.946055 80.665181 40.051181 118.537743 51.840692 102.776781 138.972145 167.127392 265.456884 175.017082l0 85.599563L291.185872 909.400962c-12.96529 0-23.473621 10.510378-23.473621 23.473621 0 12.96529 10.508331 23.473621 23.473621 23.473621l441.857477 0c12.963243 0 23.473621-10.508331 23.473621-23.473621 0-12.963243-10.510378-23.473621-23.473621-23.473621L534.272259 909.400962l0-85.454254c127.791501-7.209192 215.690434-71.734788 267.86063-175.162392 19.104103-37.872562 32.050973-78.221526 40.051181-118.537743 4.815679-24.260543 6.930853-43.315528 7.446599-54.654784C850.217025 462.639802 840.197834 451.66382 827.246871 451.075419z" fill="#ffefdd" p-id="4017"></path><path d="M510.171352 700.19215c106.568131 0 193.353706-86.506213 193.353706-193.220676L703.525058 260.871449c0-106.59269-86.567611-193.220676-193.353706-193.220676-106.570177 0-193.353706 86.508259-193.353706 193.220676l0 246.100024C316.817646 613.567233 403.385257 700.19215 510.171352 700.19215zM363.764887 260.871449c0-80.693834 65.674769-146.273435 146.407488-146.273435 80.8197 0 146.407488 65.570391 146.407488 146.273435l0 246.100024c0 80.69588-65.674769 146.273435-146.407488 146.273435-80.8197 0-146.407488-65.568345-146.407488-146.273435L363.764887 260.871449z" fill="#ffefdd" p-id="4018"></path></svg>