<svg width="203" height="90" viewBox="0 0 203 90" fill="none" xmlns="http://www.w3.org/2000/svg">
<g id="Group 1000001562">
<path id="Vector" d="M16.0635 47.0796C0.0217737 44.6664 -4.42153 59.1454 4.62153 65.1835C-8.34331 93.1086 36.194 98.9782 33.9723 75.0047C28.6842 62.5912 17.4195 70.1784 19.2969 76.3852C13.4977 65.3521 36.5382 60.0095 42.6712 64.488C53.2475 67.5861 61.2684 77.9342 64.0011 78.9669C73.5552 87.7554 96.2515 84.141 102.395 82.065C70.6556 83.2769 62.0924 67.1014 58.3375 60.0305C36.6633 64.8568 44.2775 38.4492 54.1028 39.4819C62.4991 19.8289 82.3584 30.1665 83.0781 36.173C96.2828 29.6606 108.465 44.4451 106.932 51.0734C105.399 57.6911 102.937 60.3783 101.915 60.8946C110.927 69.8939 132.935 64.0033 135.188 59.7565C147.475 46.9321 159.146 46.205 165.185 48.9975C179.11 55.7206 181.665 59.7565 194.88 59.8619C178.088 51.8954 179.527 50.968 173.79 46.4157C156.591 34.6239 142.458 46.4157 138.463 50.7573C120.95 59.451 115.318 44.4451 119.417 38.9655C129.149 28.2064 139.694 42.4851 132.215 44.1396C134.979 33.3805 119.626 36.6893 121.566 44.0342C124.841 57.2696 141.738 48.6919 142.552 41.8634C142.343 28.7228 132.205 29.9662 129.952 30.0716C137.117 14.6548 119 11.8623 114.494 15.4873C108.455 7.10978 100.872 11.7675 100.465 17.1418C101.279 34.4132 82.2437 32.0422 80.7 26.6574C76.2984 17.0364 84.6948 14.3492 86.7391 14.4546C74.859 22.3158 85.717 30.2824 92.1629 27.7955C107.933 19.2072 90.6296 -3.34371 80.1785 6.48805C61.1328 -9.12895 46.8016 7.73151 48.1262 12.5894C32.4599 7.41537 24.2722 24.4866 28.3608 27.3845C7.16651 38.0382 25.7011 57.0694 37.5708 47.0374C43.3074 42.5905 42.4834 32.8641 31.636 33.2751C46.2801 27.7955 44.1314 47.343 38.9059 48.7973C22.4156 56.5531 19.2448 48.2809 16.001 47.0691L16.0635 47.0796Z" fill="#F9F9F9"/>
<path id="Vector_2" d="M59.4333 55.8367C45.4046 65.1521 43.5584 43.3179 55.8453 41.7688C64.2417 23.4647 81.6498 33.602 82.2652 39.3873C98.6512 31.4207 107.454 50.8734 102.844 55.9421C93.6342 68.1449 86.26 55.8367 88.7111 52.9389C91.9862 46.5213 97.8272 52.1169 97.0032 54.4879C99.7672 48.9029 91.6837 45.0777 88.3043 48.5867C78.3747 58.8295 91.8819 67.5126 100.184 63.0657C111.553 72.8974 132.132 66.4799 135.001 63.2764C146.37 51.7902 155.277 48.6921 161.316 50.2412C173.499 52.412 176.68 64.0984 202.067 61.211C192.44 68.2503 175.96 65.0362 173.499 62.8654C159.168 55.0043 150.458 60.0729 147.079 63.3818C143.001 67.3756 131.434 76.6594 107.267 78.8934C86.3643 79.5784 68.8414 77.5657 59.4333 55.8262V55.8367Z" fill="#F9F9F9"/>
</g>
</svg>
